# MagicaVoxel @ Ephtracy

# group
o 

# material
mtllib Chimney.mtl
usemtl palette

# normals
vn -1 0 0
vn 1 0 0
vn 0 0 1
vn 0 0 -1
vn 0 -1 0
vn 0 1 0

# texcoords
vt 0.310547 0.5
vt 0.345703 0.5
vt 0.958984 0.5

# verts
v -2.7 8.4 1.4
v -2.7 8.4 -0.2
v -2.7 9 1.4
v -2.7 9 -0.2
v -2.5 0 1.2
v -2.5 0 0
v -2.5 8.4 1.2
v -2.5 8.4 0
v -1.4 5.7 1.1
v -1.4 5.7 0.1
v -1.4 8.5 1.1
v -1.4 8.5 0.1
v -1.4 9 1.1
v -1.4 9 0.1
v -2.4 5.7 1.1
v -2.4 5.7 0.1
v -2.4 8.5 1.1
v -2.4 8.5 0.1
v -2.4 9 1.1
v -2.4 9 0.1
v -1.3 0 1.2
v -1.3 0 0
v -1.3 8.4 1.2
v -1.3 8.4 0
v -1.1 8.4 1.4
v -1.1 8.4 -0.2
v -1.1 9 1.4
v -1.1 9 -0.2
v -2.7 8.4 1.4
v -2.7 9 1.4
v -1.1 8.4 1.4
v -1.1 9 1.4
v -2.5 0 1.2
v -2.5 8.4 1.2
v -1.3 0 1.2
v -1.3 8.4 1.2
v -2.4 5.7 0.1
v -2.4 8.5 0.1
v -2.4 9 0.1
v -1.4 5.7 0.1
v -1.4 8.5 0.1
v -1.4 9 0.1
v -2.4 5.7 1.1
v -2.4 8.5 1.1
v -2.4 9 1.1
v -1.4 5.7 1.1
v -1.4 8.5 1.1
v -1.4 9 1.1
v -2.5 0 0
v -2.5 8.4 0
v -1.3 0 0
v -1.3 8.4 0
v -2.7 8.4 -0.2
v -2.7 9 -0.2
v -1.1 8.4 -0.2
v -1.1 9 -0.2
v -2.5 0 1.2
v -1.3 0 1.2
v -2.5 0 0
v -1.3 0 0
v -2.7 8.4 1.4
v -1.1 8.4 1.4
v -2.5 8.4 1.3
v -1.3 8.4 1.3
v -2.6 8.4 1.2
v -2.5 8.4 1.2
v -1.3 8.4 1.2
v -1.2 8.4 1.2
v -2.6 8.4 0
v -2.5 8.4 0
v -1.3 8.4 0
v -2.5 8.4 -0.1
v -1.2 8.4 -0.1
v -2.7 8.4 -0.2
v -1.1 8.4 -0.2
v -2.4 5.7 1.1
v -1.4 5.7 1.1
v -2.4 5.7 0.1
v -1.4 5.7 0.1
v -2.7 9 1.4
v -1.1 9 1.4
v -2.4 9 1.1
v -1.4 9 1.1
v -2.4 9 0.1
v -1.4 9 0.1
v -2.7 9 -0.2
v -1.1 9 -0.2

# faces
f 3/2/1 2/2/1 1/2/1
f 4/2/1 2/2/1 3/2/1
f 7/1/1 6/1/1 5/1/1
f 8/1/1 6/1/1 7/1/1
f 11/1/1 10/1/1 9/1/1
f 12/1/1 10/1/1 11/1/1
f 13/2/1 12/2/1 11/2/1
f 14/2/1 12/2/1 13/2/1
f 15/1/2 16/1/2 17/1/2
f 17/1/2 16/1/2 18/1/2
f 17/2/2 18/2/2 19/2/2
f 19/2/2 18/2/2 20/2/2
f 21/1/2 22/1/2 23/1/2
f 23/1/2 22/1/2 24/1/2
f 25/2/2 26/2/2 27/2/2
f 27/2/2 26/2/2 28/2/2
f 31/2/3 30/2/3 29/2/3
f 32/2/3 30/2/3 31/2/3
f 35/1/3 34/1/3 33/1/3
f 36/1/3 34/1/3 35/1/3
f 40/1/3 38/1/3 37/1/3
f 41/2/3 39/2/3 38/2/3
f 41/1/3 38/1/3 40/1/3
f 42/2/3 39/2/3 41/2/3
f 43/1/4 44/1/4 46/1/4
f 44/2/4 45/2/4 47/2/4
f 46/1/4 44/1/4 47/1/4
f 47/2/4 45/2/4 48/2/4
f 49/1/4 50/1/4 51/1/4
f 51/1/4 50/1/4 52/1/4
f 53/2/4 54/2/4 55/2/4
f 55/2/4 54/2/4 56/2/4
f 59/1/5 58/1/5 57/1/5
f 60/1/5 58/1/5 59/1/5
f 63/2/5 62/2/5 61/2/5
f 64/2/5 62/2/5 63/2/5
f 65/2/5 63/2/5 61/2/5
f 66/3/5 64/3/5 63/3/5
f 66/2/5 63/2/5 65/2/5
f 67/2/5 62/2/5 64/2/5
f 67/3/5 64/3/5 66/3/5
f 68/2/5 62/2/5 67/2/5
f 69/3/5 66/3/5 65/3/5
f 69/2/5 65/2/5 61/2/5
f 70/3/5 66/3/5 69/3/5
f 71/3/5 68/3/5 67/3/5
f 72/2/5 70/2/5 69/2/5
f 72/3/5 71/3/5 70/3/5
f 73/2/5 62/2/5 68/2/5
f 73/3/5 71/3/5 72/3/5
f 73/3/5 68/3/5 71/3/5
f 74/2/5 72/2/5 69/2/5
f 74/2/5 69/2/5 61/2/5
f 74/2/5 73/2/5 72/2/5
f 75/2/5 62/2/5 73/2/5
f 75/2/5 73/2/5 74/2/5
f 76/1/6 77/1/6 78/1/6
f 78/1/6 77/1/6 79/1/6
f 80/2/6 81/2/6 82/2/6
f 82/2/6 81/2/6 83/2/6
f 80/2/6 82/2/6 84/2/6
f 83/2/6 81/2/6 85/2/6
f 80/2/6 84/2/6 86/2/6
f 84/2/6 85/2/6 86/2/6
f 85/2/6 81/2/6 87/2/6
f 86/2/6 85/2/6 87/2/6
